<svg preserveAspectRatio="none" width="100%" height="100%" overflow="visible" style="display: block;" viewBox="0 0 360 45.7103" fill="none" xmlns="http://www.w3.org/2000/svg">
<g id="TKH">
<path id="path14" d="M50.2386 42.4003H64.1503L53.0065 3.69696H45.593V26.8612L50.2386 42.4003ZM68.5165 45.6867H47.7907L42.3066 27.342V0.410603H55.4801L68.5165 45.6867Z" fill="var(--fill-0, #E84925)"/>
<path id="path18" d="M77.5008 42.4003H84.0949L84.0967 18.6414L79.4619 3.69696H66.3564L77.5008 42.4003ZM87.3807 45.6867H75.0272L61.9902 0.410603H81.8836L87.3831 18.1432L87.3807 45.6867Z" fill="var(--fill-0, #E84925)"/>
<path id="path22" d="M3.28636 12.3646V24.5072L32.4745 16.8088V4.66628L3.28636 12.3646ZM0 28.7726V9.83268L35.7608 0.400275V19.3408L0 28.7726Z" fill="var(--fill-0, #E84925)"/>
<path id="path26" d="M35.7757 45.7101L0 36.258V19.4514H3.28636V33.7273L32.4894 41.4429V29.3004L14.3324 24.5034L15.1721 21.3261L35.7757 26.7696V45.7101Z" fill="var(--fill-0, #E84925)"/>
<path id="path38" d="M103.244 25.9797H106.23V37.2737C106.23 38.9506 106.617 40.2103 107.392 41.0529C108.167 41.8955 109.325 42.3168 110.866 42.3168C112.399 42.3168 113.553 41.8955 114.328 41.0529C115.103 40.2103 115.49 38.9506 115.49 37.2737V25.9797H118.514V37.5526C118.514 40.0685 117.879 41.9509 116.608 43.1999C115.338 44.4489 113.424 45.0734 110.866 45.0734C108.309 45.0734 106.399 44.4513 105.137 43.2058C103.875 41.961 103.244 40.0768 103.244 37.5526V25.9797Z" fill="var(--fill-0, white)"/>
<path id="path42" d="M122.453 44.5812V32.5382H125.045V34.507C125.595 33.6769 126.243 33.0715 126.988 32.6907C127.733 32.3093 128.64 32.1187 129.707 32.1187C130.604 32.1187 131.369 32.2605 132 32.5447C132.631 32.8284 133.124 33.2497 133.48 33.8086C133.692 34.1387 133.844 34.5243 133.937 34.964C134.03 35.405 134.077 36.1755 134.077 37.2767V44.5812H131.295V38.3946C131.295 36.8107 131.103 35.7584 130.717 35.2376C130.331 34.7168 129.647 34.4563 128.665 34.4563C128.022 34.4563 127.448 34.5749 126.944 34.8121C126.44 35.0493 126.044 35.3836 125.756 35.8156C125.553 36.1034 125.411 36.474 125.331 36.9269C125.25 37.3804 125.21 38.102 125.21 39.093V44.5812H122.453Z" fill="var(--fill-0, white)"/>
<path id="path44" d="M137.874 32.5382H140.631V44.5812H137.874V32.5382ZM137.506 27.33C137.506 26.8641 137.677 26.4618 138.021 26.1228C138.363 25.7843 138.772 25.6145 139.246 25.6145C139.737 25.6145 140.146 25.7783 140.472 26.1037C140.798 26.4302 140.961 26.839 140.961 27.33C140.961 27.8211 140.796 28.234 140.466 28.5683C140.136 28.9032 139.729 29.0701 139.246 29.0701C138.772 29.0701 138.363 28.8984 138.021 28.5558C137.677 28.2126 137.506 27.8044 137.506 27.33Z" fill="var(--fill-0, white)"/>
<path id="path48" d="M148.8 45.3038L142.486 32.5362H145.497L148.126 38.5965C148.211 38.7824 148.312 39.0619 148.432 39.4343C148.55 39.8073 148.673 40.2519 148.8 40.7685C148.884 40.4044 148.984 40.0421 149.098 39.6822C149.213 39.3223 149.35 38.96 149.511 38.5965L152.128 32.5362H155.126L148.8 45.3038Z" fill="var(--fill-0, white)"/>
<path id="path52" d="M165.594 37.1081C165.484 36.244 165.154 35.5855 164.604 35.1327C164.053 34.6798 163.299 34.4528 162.342 34.4528C161.436 34.4528 160.708 34.6732 160.158 35.1136C159.607 35.554 159.221 36.219 159.002 37.1081H165.594ZM168.453 38.9631H158.823C158.891 40.0893 159.226 40.9683 159.827 41.5987C160.428 42.2298 161.228 42.545 162.228 42.545C163.117 42.545 163.858 42.3591 164.451 41.986C165.044 41.6136 165.561 41.0124 166.001 40.1823L168.326 41.4783C167.648 42.6892 166.81 43.5914 165.81 44.1843C164.811 44.7766 163.638 45.0734 162.291 45.0734C160.361 45.0734 158.823 44.4846 157.68 43.3077C156.537 42.1303 155.965 40.5595 155.965 38.5948C155.965 36.7058 156.556 35.1535 157.737 33.9385C158.919 32.7235 160.437 32.1151 162.291 32.1151C164.231 32.1151 165.742 32.6704 166.827 33.7794C167.911 34.8895 168.453 36.443 168.453 38.4423V38.9631Z" fill="var(--fill-0, white)"/>
<path id="path56" d="M174.081 34.4563C174.377 33.6602 174.769 33.0715 175.256 32.6907C175.743 32.3093 176.346 32.1187 177.066 32.1187C177.455 32.1187 177.839 32.1657 178.216 32.2587C178.593 32.3522 178.963 32.4875 179.328 32.6651L178.337 35.0028C178.1 34.8335 177.843 34.7084 177.568 34.628C177.293 34.5475 176.986 34.507 176.647 34.507C175.732 34.507 175.076 34.8741 174.678 35.6058C174.28 36.3388 174.081 37.5687 174.081 39.2968V44.5812H171.324V32.5125H174.081V34.4563Z" fill="var(--fill-0, white)"/>
<path id="path60" d="M179.518 42.393L181.804 41.1482C181.973 41.7495 182.287 42.2071 182.744 42.52C183.201 42.8334 183.79 42.9901 184.51 42.9901C185.129 42.9901 185.613 42.8483 185.965 42.5647C186.316 42.281 186.492 41.8937 186.492 41.4021C186.492 40.7502 185.865 40.1912 184.612 39.7252C184.188 39.5727 183.862 39.4457 183.633 39.3439C182.346 38.8105 181.446 38.2689 180.934 37.7183C180.422 37.1676 180.165 36.4985 180.165 35.7107C180.165 34.6357 180.587 33.7633 181.429 33.0941C182.272 32.4249 183.388 32.0906 184.777 32.0906C185.708 32.0906 186.507 32.2616 187.171 32.6049C187.836 32.9481 188.321 33.4368 188.626 34.072L186.67 35.4187C186.526 35.0379 186.274 34.7352 185.914 34.5106C185.554 34.2859 185.137 34.1739 184.663 34.1739C184.138 34.1739 183.716 34.299 183.399 34.5487C183.081 34.7984 182.922 35.1309 182.922 35.5456C182.922 36.1725 183.633 36.7446 185.056 37.2606C185.505 37.4215 185.853 37.5526 186.098 37.6545C187.208 38.0949 188.001 38.5924 188.48 39.1472C188.958 39.702 189.198 40.3944 189.198 41.2245C189.198 42.427 188.762 43.3691 187.889 44.0508C187.017 44.7325 185.814 45.0734 184.282 45.0734C183.104 45.0734 182.126 44.8535 181.347 44.4125C180.568 43.9728 179.958 43.2994 179.518 42.393Z" fill="var(--fill-0, white)"/>
<path id="path62" d="M192.107 32.5382H194.863V44.5812H192.107V32.5382ZM191.738 27.33C191.738 26.8641 191.91 26.4618 192.253 26.1228C192.596 25.7843 193.005 25.6145 193.479 25.6145C193.97 25.6145 194.379 25.7783 194.705 26.1037C195.031 26.4302 195.194 26.839 195.194 27.33C195.194 27.8211 195.029 28.234 194.699 28.5683C194.368 28.9032 193.962 29.0701 193.479 29.0701C193.005 29.0701 192.596 28.8984 192.253 28.5558C191.91 28.2126 191.738 27.8044 191.738 27.33Z" fill="var(--fill-0, white)"/>
<path id="path66" d="M199.449 44.5812V34.9515H197.34V32.5382H199.449V27.9772H202.205V32.5382H204.314V34.9515H202.205V44.5812H199.449Z" fill="var(--fill-0, white)"/>
<path id="path68" d="M206.818 32.5382H209.575V44.5812H206.818V32.5382ZM206.449 27.33C206.449 26.8641 206.621 26.4618 206.964 26.1228C207.307 25.7843 207.715 25.6145 208.19 25.6145C208.681 25.6145 209.09 25.7783 209.416 26.1037C209.742 26.4302 209.905 26.839 209.905 27.33C209.905 27.8211 209.74 28.234 209.41 28.5683C209.079 28.9032 208.673 29.0701 208.19 29.0701C207.715 29.0701 207.307 28.8984 206.964 28.5558C206.621 28.2126 206.449 27.8044 206.449 27.33Z" fill="var(--fill-0, white)"/>
<path id="path72" d="M222.253 37.1081C222.142 36.244 221.812 35.5855 221.262 35.1327C220.711 34.6798 219.957 34.4528 219 34.4528C218.095 34.4528 217.366 34.6732 216.816 35.1136C216.265 35.554 215.88 36.219 215.66 37.1081H222.253ZM225.111 38.9631H215.482C215.549 40.0893 215.884 40.9683 216.485 41.5987C217.086 42.2298 217.887 42.545 218.886 42.545C219.776 42.545 220.516 42.3591 221.109 41.986C221.702 41.6136 222.219 41.0124 222.659 40.1823L224.984 41.4783C224.306 42.6892 223.468 43.5914 222.468 44.1843C221.469 44.7766 220.296 45.0734 218.95 45.0734C217.019 45.0734 215.482 44.4846 214.338 43.3077C213.195 42.1303 212.623 40.5595 212.623 38.5948C212.623 36.7058 213.214 35.1535 214.395 33.9385C215.577 32.7235 217.095 32.1151 218.95 32.1151C220.889 32.1151 222.4 32.6704 223.485 33.7794C224.569 34.8895 225.111 36.443 225.111 38.4423V38.9631Z" fill="var(--fill-0, white)"/>
<path id="path76" d="M226.598 42.393L228.884 41.1482C229.053 41.7495 229.367 42.2071 229.824 42.52C230.281 42.8334 230.87 42.9901 231.59 42.9901C232.209 42.9901 232.693 42.8483 233.045 42.5647C233.396 42.281 233.572 41.8937 233.572 41.4021C233.572 40.7502 232.945 40.1912 231.692 39.7252C231.268 39.5727 230.942 39.4457 230.713 39.3439C229.426 38.8105 228.527 38.2689 228.014 37.7183C227.502 37.1676 227.245 36.4985 227.245 35.7107C227.245 34.6357 227.667 33.7633 228.509 33.0941C229.352 32.4249 230.468 32.0906 231.857 32.0906C232.788 32.0906 233.587 32.2616 234.252 32.6049C234.916 32.9481 235.401 33.4368 235.706 34.072L233.75 35.4187C233.606 35.0379 233.354 34.7352 232.994 34.5106C232.634 34.2859 232.217 34.1739 231.743 34.1739C231.218 34.1739 230.796 34.299 230.479 34.5487C230.161 34.7984 230.002 35.1309 230.002 35.5456C230.002 36.1725 230.713 36.7446 232.136 37.2606C232.585 37.4215 232.933 37.5526 233.178 37.6545C234.288 38.0949 235.081 38.5924 235.561 39.1472C236.038 39.702 236.278 40.3944 236.278 41.2245C236.278 42.427 235.842 43.3691 234.969 44.0508C234.097 44.7325 232.894 45.0734 231.362 45.0734C230.184 45.0734 229.206 44.8535 228.427 44.4125C227.648 43.9728 227.038 43.2994 226.598 42.393Z" fill="var(--fill-0, white)"/>
<path id="path80" d="M159.125 7.73855L165.048 0.0306545H171.046L163.636 8.87849L171.74 18.7179H165.445L159.125 10.6131V18.7179H154.268V0.0306545H159.125V7.73855Z" fill="var(--fill-0, white)"/>
<path id="path84" d="M173.475 6.0039H177.961V7.6146C178.571 6.87152 179.191 6.37157 179.819 6.11533C180.447 5.85969 181.183 5.73098 182.025 5.73098C182.917 5.73098 183.681 5.87638 184.318 6.16479C184.953 6.4544 185.494 6.86318 185.941 7.39174C186.304 7.82138 186.552 8.30048 186.684 8.82903C186.816 9.35819 186.882 9.96123 186.882 10.6382V18.7179H182.397V12.2989C182.397 11.6715 182.351 11.1632 182.26 10.7746C182.169 10.3867 182.008 10.0768 181.777 9.84563C181.579 9.6472 181.356 9.50716 181.108 9.42433C180.86 9.3415 180.596 9.30039 180.315 9.30039C179.555 9.30039 178.972 9.52742 178.568 9.98149C178.163 10.4362 177.961 11.0845 177.961 11.9271V18.7179H173.475V6.0039Z" fill="var(--fill-0, white)"/>
<path id="path88" d="M193.353 12.2969C193.353 12.7266 193.431 13.1193 193.588 13.4738C193.745 13.8296 193.952 14.1394 194.208 14.4034C194.464 14.668 194.769 14.8742 195.125 15.0231C195.48 15.1715 195.856 15.246 196.253 15.246C196.649 15.246 197.025 15.1715 197.38 15.0231C197.735 14.8742 198.041 14.668 198.297 14.4034C198.553 14.1394 198.759 13.8296 198.917 13.4738C199.074 13.1193 199.152 12.7349 199.152 12.3219C199.152 11.9251 199.074 11.5497 198.917 11.1939C198.759 10.8388 198.553 10.5289 198.297 10.2643C198.041 10.0003 197.735 9.79357 197.38 9.64519C197.025 9.49622 196.649 9.42233 196.253 9.42233C195.856 9.42233 195.48 9.49622 195.125 9.64519C194.769 9.79357 194.464 10.0003 194.208 10.2643C193.952 10.5289 193.745 10.8346 193.588 11.1814C193.431 11.5288 193.353 11.9007 193.353 12.2969ZM188.619 12.2475C188.619 11.3054 188.809 10.4258 189.189 9.60765C189.569 8.79008 190.098 8.07978 190.776 7.47673C191.453 6.87369 192.258 6.39816 193.192 6.05135C194.125 5.70454 195.145 5.53114 196.253 5.53114C197.343 5.53114 198.355 5.70037 199.289 6.03884C200.222 6.3779 201.032 6.84866 201.717 7.4517C202.403 8.05534 202.936 8.77399 203.316 9.60765C203.696 10.4425 203.886 11.3638 203.886 12.3714C203.886 13.3791 203.692 14.3003 203.304 15.1346C202.915 15.9688 202.383 16.6881 201.705 17.2905C201.027 17.8942 200.213 18.3607 199.264 18.6909C198.314 19.0216 197.285 19.1867 196.178 19.1867C195.088 19.1867 194.08 19.0216 193.154 18.6909C192.229 18.3607 191.432 17.89 190.763 17.2786C190.094 16.6672 189.569 15.936 189.189 15.0851C188.809 14.2342 188.619 13.2885 188.619 12.2475Z" fill="var(--fill-0, white)"/>
<path id="path92" d="M208.891 6.0039L211.939 12.6958L215.111 6.0039H217.937L221.109 12.8936L224.306 6.0039H229.288L222.646 18.7179H219.647L216.475 11.7537L213.451 18.7179H210.403L203.885 6.0039H208.891Z" fill="var(--fill-0, white)"/>
<path id="path94" d="M235.558 18.7179H231.072V0.03125H235.558V18.7179Z" fill="var(--fill-0, white)"/>
<path id="path98" d="M247.082 10.52C246.933 9.89255 246.628 9.38843 246.165 9.00825C245.703 8.62806 245.141 8.43797 244.48 8.43797C243.786 8.43797 243.22 8.62032 242.782 8.98322C242.344 9.34731 242.067 9.85918 241.952 10.52H247.082ZM241.828 13.1223C241.828 15.0554 242.736 16.0219 244.555 16.0219C245.529 16.0219 246.265 15.6257 246.76 14.8325H251.097C250.221 17.7405 248.032 19.1945 244.53 19.1945C243.456 19.1945 242.472 19.033 241.58 18.7112C240.688 18.3888 239.924 17.9306 239.288 17.3353C238.652 16.7406 238.16 16.0303 237.813 15.2038C237.466 14.3778 237.293 13.453 237.293 12.4281C237.293 11.371 237.458 10.4169 237.789 9.566C238.119 8.71506 238.59 7.99224 239.201 7.39695C239.812 6.80224 240.552 6.344 241.42 6.02162C242.287 5.69984 243.266 5.53835 244.356 5.53835C245.43 5.53835 246.396 5.69984 247.256 6.02162C248.115 6.344 248.842 6.81118 249.437 7.42197C250.031 8.03336 250.486 8.78121 250.8 9.66492C251.114 10.5492 251.271 11.5444 251.271 12.6515V13.1223H241.828Z" fill="var(--fill-0, white)"/>
<path id="path102" d="M257.665 12.3295C257.665 12.7424 257.739 13.1268 257.888 13.4819C258.037 13.8377 258.239 14.1475 258.495 14.4115C258.751 14.6755 259.057 14.8823 259.412 15.0307C259.767 15.1796 260.152 15.2541 260.565 15.2541C260.961 15.2541 261.337 15.1796 261.693 15.0307C262.047 14.8823 262.353 14.6755 262.609 14.4115C262.865 14.1475 263.072 13.8413 263.229 13.4944C263.386 13.1476 263.464 12.7758 263.464 12.3789C263.464 11.9827 263.386 11.6067 263.229 11.2515C263.072 10.8963 262.865 10.5865 262.609 10.3219C262.353 10.0579 262.047 9.85115 261.693 9.70217C261.337 9.5538 260.961 9.47931 260.565 9.47931C260.168 9.47931 259.792 9.5538 259.437 9.70217C259.081 9.85115 258.776 10.0579 258.52 10.3219C258.264 10.5865 258.057 10.888 257.9 11.2265C257.743 11.5655 257.665 11.9332 257.665 12.3295ZM263.316 0.0367661H267.826V18.7234H263.316V17.3111C262.357 18.5172 261.06 19.1203 259.425 19.1203C258.499 19.1203 257.648 18.9469 256.872 18.6001C256.095 18.2527 255.418 17.7736 254.84 17.1622C254.261 16.5514 253.811 15.8327 253.489 15.0062C253.167 14.1803 253.006 13.2877 253.006 12.3295C253.006 11.4207 253.158 10.5573 253.464 9.73972C253.77 8.92155 254.203 8.20707 254.765 7.59569C255.327 6.9849 256 6.50163 256.785 6.14588C257.57 5.79072 258.433 5.61315 259.375 5.61315C260.961 5.61315 262.275 6.16673 263.316 7.2739V0.0367661Z" fill="var(--fill-0, white)"/>
<path id="path106" d="M274.22 12.2995C274.22 12.7125 274.294 13.0968 274.443 13.452C274.592 13.8077 274.794 14.117 275.05 14.3816C275.306 14.6455 275.612 14.8523 275.967 15.0007C276.322 15.1497 276.707 15.2242 277.119 15.2242C277.516 15.2242 277.892 15.1497 278.247 15.0007C278.602 14.8523 278.908 14.6455 279.164 14.3816C279.42 14.117 279.626 13.8077 279.784 13.452C279.94 13.0968 280.019 12.7208 280.019 12.3245C280.019 11.9116 279.94 11.5314 279.784 11.184C279.626 10.8372 279.416 10.5315 279.152 10.2669C278.887 10.0029 278.578 9.79616 278.222 9.64778C277.867 9.49881 277.5 9.42492 277.119 9.42492C276.723 9.42492 276.351 9.50298 276.005 9.6603C275.657 9.81702 275.351 10.0238 275.087 10.2794C274.823 10.5363 274.612 10.8372 274.455 11.184C274.298 11.5314 274.22 11.9032 274.22 12.2995ZM284.282 6.00448V17.8509C284.282 18.5618 284.24 19.1976 284.158 19.7595C284.075 20.3208 283.96 20.8166 283.811 21.2463C283.613 21.7915 283.303 22.2998 282.882 22.7706C282.46 23.2413 281.952 23.6501 281.357 23.9975C280.763 24.3443 280.089 24.6172 279.338 24.8151C278.585 25.0135 277.772 25.1124 276.897 25.1124C275.905 25.1124 274.996 24.9885 274.17 24.7406C273.344 24.4927 272.621 24.1501 272.002 23.7121C271.382 23.2741 270.874 22.7622 270.478 22.1759C270.081 21.5889 269.817 20.9489 269.684 20.2553H274.74C275.054 21.0979 275.764 21.5192 276.872 21.5192C277.814 21.5192 278.536 21.2546 279.04 20.7261C279.544 20.1969 279.796 19.4622 279.796 18.5201V17.3056C279.466 17.6197 279.147 17.8801 278.842 18.0862C278.536 18.293 278.226 18.4623 277.913 18.5945C277.599 18.7268 277.268 18.8216 276.921 18.8794C276.574 18.9372 276.194 18.9664 275.781 18.9664C274.872 18.9664 274.038 18.8091 273.278 18.4956C272.518 18.1816 271.861 17.7436 271.308 17.1817C270.754 16.6203 270.324 15.947 270.019 15.1622C269.713 14.3774 269.561 13.5056 269.561 12.5474C269.561 11.5725 269.726 10.668 270.056 9.8337C270.386 8.99945 270.837 8.27246 271.407 7.65273C271.977 7.033 272.654 6.54555 273.439 6.1904C274.224 5.83525 275.079 5.65767 276.005 5.65767C277.507 5.65767 278.771 6.2196 279.796 7.34286V6.00448H284.282Z" fill="var(--fill-0, white)"/>
<path id="path110" d="M295.807 10.5122C295.658 9.88474 295.352 9.38061 294.89 9.00043C294.427 8.62025 293.866 8.43016 293.205 8.43016C292.51 8.43016 291.944 8.61251 291.507 8.97541C291.069 9.3395 290.792 9.85137 290.677 10.5122H295.807ZM290.553 13.1145C290.553 15.0476 291.461 16.0141 293.279 16.0141C294.253 16.0141 294.989 15.6178 295.485 14.8247H299.822C298.946 17.7327 296.757 19.1867 293.254 19.1867C292.18 19.1867 291.197 19.0252 290.305 18.7034C289.413 18.381 288.648 17.9228 288.013 17.3275C287.376 16.7328 286.885 16.0225 286.538 15.1959C286.191 14.37 286.018 13.4452 286.018 12.4203C286.018 11.3632 286.183 10.4091 286.513 9.55819C286.843 8.70725 287.314 7.98443 287.926 7.38913C288.537 6.79443 289.277 6.33619 290.144 6.01381C291.011 5.69203 291.99 5.53054 293.081 5.53054C294.155 5.53054 295.121 5.69203 295.98 6.01381C296.839 6.33619 297.567 6.80337 298.161 7.41416C298.756 8.02555 299.211 8.7734 299.525 9.65711C299.838 10.5414 299.995 11.5366 299.995 12.6437V13.1145H290.553Z" fill="var(--fill-0, white)"/>
<path id="path114" d="M316.307 7.21211H323.321V3.42297e-08H328.178V18.6867H323.321V10.9794H316.307V18.6867H311.449V3.42297e-08H316.307V7.21211Z" fill="var(--fill-0, white)"/>
<path id="path118" d="M334.398 5.97064V13.1327C334.398 14.7029 335.158 15.4877 336.678 15.4877C338.198 15.4877 338.958 14.7029 338.958 13.1327V5.97064H343.444V14.0003C343.444 15.7189 342.878 17.0078 341.747 17.8665C340.614 18.7258 338.925 19.1554 336.678 19.1554C334.431 19.1554 332.741 18.7258 331.61 17.8665C330.478 17.0078 329.912 15.7189 329.912 14.0003V5.97064H334.398Z" fill="var(--fill-0, white)"/>
<path id="path122" d="M355.316 12.3688C355.316 11.9725 355.241 11.5965 355.093 11.2413C354.944 10.8862 354.737 10.5763 354.473 10.3117C354.209 10.0478 353.903 9.83681 353.556 9.67949C353.209 9.52277 352.829 9.44411 352.416 9.44411C352.019 9.44411 351.648 9.5186 351.301 9.66757C350.954 9.81595 350.652 10.0227 350.396 10.2867C350.14 10.5513 349.934 10.8612 349.777 11.2163C349.62 11.5721 349.541 11.9475 349.541 12.3437C349.541 12.7406 349.616 13.1124 349.764 13.4592C349.913 13.8061 350.12 14.1082 350.384 14.3638C350.648 14.6201 350.958 14.8268 351.313 14.9835C351.668 15.1409 352.044 15.2189 352.441 15.2189C352.838 15.2189 353.209 15.1444 353.556 14.9961C353.903 14.8471 354.205 14.6409 354.461 14.3763C354.717 14.1124 354.923 13.8061 355.08 13.4592C355.237 13.1124 355.316 12.7489 355.316 12.3688ZM349.665 0.00156978V7.23871C350.723 6.13154 352.044 5.57795 353.631 5.57795C354.572 5.57795 355.436 5.75553 356.22 6.11068C357.005 6.46643 357.674 6.94553 358.228 7.54857C358.781 8.15162 359.215 8.86192 359.529 9.67949C359.843 10.4977 360 11.3694 360 12.2943C360 13.2364 359.839 14.1201 359.517 14.946C359.195 15.7725 358.744 16.4912 358.166 17.1025C357.587 17.7139 356.906 18.1972 356.121 18.5524C355.336 18.9075 354.489 19.0851 353.581 19.0851C351.929 19.0851 350.623 18.482 349.665 17.276V18.6888H345.18V0.00156978H349.665Z" fill="var(--fill-0, white)"/>
<path id="path126" d="M107.969 4.14531V18.7179H103.111V4.14531H99.1211V0.031253H111.959V4.14531H107.969Z" fill="var(--fill-0, white)"/>
<path id="path130" d="M113.693 0.031253H118.179V7.6152C118.79 6.87152 119.41 6.37216 120.038 6.11593C120.666 5.8597 121.401 5.73158 122.244 5.73158C123.846 5.73158 125.056 6.17373 125.875 7.05744C126.692 7.94175 127.102 9.13533 127.102 10.6388V18.7179H122.616V12.2989C122.616 11.6548 122.566 11.1346 122.467 10.7377C122.368 10.3414 122.202 10.0357 121.971 9.8206C121.575 9.47379 121.095 9.30039 120.534 9.30039C119.773 9.30039 119.191 9.52742 118.786 9.98209C118.381 10.4368 118.179 11.0845 118.179 11.9277V18.7179H113.693V0.031253Z" fill="var(--fill-0, white)"/>
<path id="path134" d="M138.625 10.5122C138.476 9.88474 138.171 9.38061 137.708 9.00043C137.246 8.62085 136.684 8.43016 136.023 8.43016C135.329 8.43016 134.763 8.61251 134.325 8.97541C133.887 9.3395 133.61 9.85137 133.495 10.5122H138.625ZM133.371 13.1145C133.371 15.0476 134.279 16.0141 136.098 16.0141C137.072 16.0141 137.807 15.6178 138.303 14.8247H142.64C141.764 17.7327 139.575 19.1867 136.072 19.1867C134.998 19.1867 134.015 19.0252 133.123 18.7034C132.231 18.381 131.467 17.9228 130.831 17.3275C130.195 16.7328 129.703 16.0225 129.356 15.1965C129.009 14.3706 128.836 13.4452 128.836 12.4209C128.836 11.3632 129.001 10.4091 129.332 9.55819C129.662 8.70725 130.133 7.98443 130.744 7.38973C131.355 6.79443 132.095 6.33619 132.963 6.01381C133.83 5.69203 134.809 5.53054 135.899 5.53054C136.973 5.53054 137.939 5.69203 138.799 6.01381C139.658 6.33619 140.385 6.80337 140.98 7.41416C141.574 8.02555 142.029 8.7734 142.343 9.65711C142.657 10.5414 142.814 11.5372 142.814 12.6437V13.1145H133.371Z" fill="var(--fill-0, white)"/>
</g>
</svg>
