<svg width="40" height="40" viewBox="0 0 40 40" fill="none" xmlns="http://www.w3.org/2000/svg">
<rect width="40" height="40" rx="20" fill="#E84925"/>
<rect width="40" height="40" rx="20" fill="white"/>
<path d="M26.7851 14.2858V23.5715C26.7851 23.8557 26.6722 24.1282 26.4713 24.3291C26.2704 24.53 25.9979 24.6429 25.7137 24.6429C25.4295 24.6429 25.157 24.53 24.9561 24.3291C24.7551 24.1282 24.6423 23.8557 24.6423 23.5715V16.8751L15.0432 26.4724C14.8419 26.6737 14.5689 26.7868 14.2842 26.7868C13.9996 26.7868 13.7266 26.6737 13.5253 26.4724C13.324 26.2711 13.2109 25.9981 13.2109 25.7135C13.2109 25.4288 13.324 25.1558 13.5253 24.9545L23.1244 15.3572H16.428C16.1438 15.3572 15.8713 15.2443 15.6704 15.0434C15.4694 14.8425 15.3565 14.5699 15.3565 14.2858C15.3565 14.0016 15.4694 13.7291 15.6704 13.5282C15.8713 13.3272 16.1438 13.2144 16.428 13.2144H25.7137C25.9979 13.2144 26.2704 13.3272 26.4713 13.5282C26.6722 13.7291 26.7851 14.0016 26.7851 14.2858Z" fill="#E84925"/>
</svg>
