<svg width="24" height="24" viewBox="0 0 24 24" fill="none" xmlns="http://www.w3.org/2000/svg">
<path d="M19.4452 4.6331C19.539 4.72687 19.5916 4.85405 19.5916 4.98665C19.5916 5.11926 19.539 5.24644 19.4452 5.34021L5.30306 19.4823C5.20929 19.5761 5.08211 19.6288 4.94951 19.6288C4.8169 19.6288 4.68972 19.5761 4.59595 19.4823C4.50219 19.3886 4.44951 19.2614 4.44951 19.1288C4.44951 18.9962 4.50219 18.869 4.59595 18.7752L18.7381 4.6331C18.8319 4.53933 18.959 4.48665 19.0916 4.48665C19.2243 4.48665 19.3514 4.53933 19.4452 4.6331Z" fill="#101828"/>
<path d="M19.4419 19.4072C19.3481 19.501 19.2058 19.5385 19.0462 19.5115C18.8866 19.4846 18.7229 19.3953 18.5909 19.2634L4.6644 5.33684C4.53249 5.20492 4.44322 5.04116 4.41625 4.88158C4.38928 4.722 4.42681 4.57967 4.52057 4.48591C4.61434 4.39214 4.75667 4.35461 4.91625 4.38158C5.07583 4.40856 5.23959 4.49782 5.37151 4.62973L19.298 18.5563C19.43 18.6882 19.5192 18.8519 19.5462 19.0115C19.5732 19.1711 19.5356 19.3134 19.4419 19.4072Z" fill="#101828"/>
</svg>
