<svg width="24" height="24" viewBox="0 0 24 24" fill="none" xmlns="http://www.w3.org/2000/svg">
<path d="M22.5 4C22.5 4.13261 22.4473 4.25979 22.3536 4.35355C22.2598 4.44732 22.1326 4.5 22 4.5H2C1.86739 4.5 1.74021 4.44732 1.64645 4.35355C1.55268 4.25979 1.5 4.13261 1.5 4C1.5 3.86739 1.55268 3.74021 1.64645 3.64645C1.74021 3.55268 1.86739 3.5 2 3.5H22C22.1326 3.5 22.2598 3.55268 22.3536 3.64645C22.4473 3.74021 22.5 3.86739 22.5 4Z" fill="#101828"/>
<path d="M16.5 12C16.5 12.1326 16.4473 12.2598 16.3536 12.3536C16.2598 12.4473 16.1326 12.5 16 12.5H2C1.86739 12.5 1.74021 12.4473 1.64645 12.3536C1.55268 12.2598 1.5 12.1326 1.5 12C1.5 11.8674 1.55268 11.7402 1.64645 11.6464C1.74021 11.5527 1.86739 11.5 2 11.5H16C16.1326 11.5 16.2598 11.5527 16.3536 11.6464C16.4473 11.7402 16.5 11.8674 16.5 12Z" fill="#101828"/>
<path d="M8.5 20C8.5 20.1326 8.44732 20.2598 8.35355 20.3536C8.25979 20.4473 8.13261 20.5 8 20.5H2C1.86739 20.5 1.74021 20.4473 1.64645 20.3536C1.55268 20.2598 1.5 20.1326 1.5 20C1.5 19.8674 1.55268 19.7402 1.64645 19.6464C1.74021 19.5527 1.86739 19.5 2 19.5H8C8.13261 19.5 8.25979 19.5527 8.35355 19.6464C8.44732 19.7402 8.5 19.8674 8.5 20Z" fill="#101828"/>
</svg>
