<svg width="56" height="56" viewBox="0 0 56 56" fill="none" xmlns="http://www.w3.org/2000/svg">
<path d="M28 1C42.9117 1 55 13.0883 55 28C55 42.9117 42.9117 55 28 55C13.0883 55 1 42.9117 1 28C1 13.0883 13.0883 1 28 1Z" stroke="#E84925" stroke-width="2"/>
<path d="M29.293 21.293C29.6835 20.9025 30.3165 20.9025 30.707 21.293L36.707 27.293C37.0976 27.6835 37.0976 28.3166 36.707 28.7071L30.707 34.7071C30.3165 35.0976 29.6835 35.0976 29.293 34.7071C28.9024 34.3166 28.9024 33.6835 29.293 33.293L33.5859 29H20C19.4477 29 19 28.5523 19 28C19 27.4478 19.4477 27 20 27H33.5859L29.293 22.7071C28.9024 22.3166 28.9024 21.6835 29.293 21.293Z" fill="#E84925"/>
</svg>
