<svg width="167" height="91" viewBox="0 0 167 91" fill="none" xmlns="http://www.w3.org/2000/svg">
<path d="M150.963 49.9396C146.168 38.6295 141.373 27.3191 136.577 16.0095H127.549C123.112 26.478 118.673 36.9461 114.235 47.4142C113.878 48.2565 113.521 49.0989 113.163 49.9412L123.001 49.9379C125.993 42.3133 128.984 34.6886 131.976 27.064C134.95 34.6915 137.926 42.3199 140.899 49.9482C144.254 49.9449 147.609 49.942 150.963 49.9396Z" fill="white"/>
<path d="M82.7292 16.0166C87.5244 27.3267 92.32 38.6371 97.1148 49.9467H106.143C110.581 39.4782 115.019 29.0101 119.457 18.542C119.815 17.6997 120.172 16.8573 120.529 16.015L110.691 16.0183C107.699 23.6429 104.708 31.2676 101.717 38.8931L92.7928 16.008C89.4383 16.0113 86.0833 16.0142 82.7292 16.0166Z" fill="white"/>
<path d="M38.8628 16V36.9016L22.9074 16H16V49.9482H23.3938V28.3668L39.8846 49.9482H46.2567V16H38.8628Z" fill="white"/>
<path d="M65.5224 41.5674C70.1428 41.5674 73.9018 45.3264 73.9018 49.9467H81.8519C81.8519 40.9431 74.5269 33.6172 65.5224 33.6172C56.518 33.6172 49.193 40.9431 49.193 49.9467H57.1431C57.1431 45.3264 60.9021 41.5674 65.5224 41.5674Z" fill="#348041"/>
<path d="M65.5224 24.3795C60.9021 24.3795 57.1431 20.62 57.1431 16.0001H49.193C49.193 25.0037 56.518 32.3288 65.5224 32.3288C74.5269 32.3288 81.8519 25.0037 81.8519 16.0001H73.9018C73.9018 20.62 70.1428 24.3795 65.5224 24.3795Z" fill="white"/>
<path d="M49.4069 64.7776V58.5524L53.6128 62.9995V58.9483H54.4827V65.1323L50.2768 60.6963V64.7776H49.4069Z" fill="white"/>
<path d="M57.2734 61.8487C57.2734 62.4927 57.4878 63.0231 57.9157 63.4379C58.3416 63.8535 58.8334 64.0609 59.391 64.0609C59.9959 64.0609 60.5065 63.8498 60.9226 63.4268C61.3386 62.9992 61.5464 62.4779 61.5464 61.8639C61.5464 61.2421 61.3406 60.7212 60.9295 60.3006C60.5213 59.8784 60.016 59.6665 59.4132 59.6665C58.8132 59.6665 58.3067 59.8784 57.8935 60.3006C57.4795 60.7191 57.2734 61.2347 57.2734 61.8487ZM56.3952 61.8372C56.3952 61.0175 56.6932 60.3126 57.2882 59.7237C57.8808 59.1349 58.5931 58.8402 59.4243 58.8402C60.2465 58.8402 60.9514 59.1365 61.5382 59.7311C62.1291 60.3249 62.4241 61.038 62.4241 61.8713C62.4241 62.7096 62.1278 63.4206 61.5353 64.0045C60.9394 64.5909 60.2214 64.8839 59.3798 64.8839C58.6354 64.8839 57.9668 64.6238 57.3742 64.1029C56.7216 63.526 56.3952 62.7709 56.3952 61.8372Z" fill="white"/>
<path d="M64.6279 58.9483L66.2233 62.9879L67.8397 58.9483H68.7927L66.204 65.2154L63.6757 58.9483H64.6279Z" fill="white"/>
<path d="M73.3612 62.5354L72.5052 60.5532L71.6094 62.5354H73.3612ZM73.7159 63.3625H71.2473L70.6041 64.7777H69.6667L72.5205 58.583L75.273 64.7777H74.3208L73.7159 63.3625Z" fill="white"/>
<path d="M80.8623 58.9489V62.4598C80.8623 62.9606 80.9433 63.3268 81.1047 63.5581C81.3466 63.8934 81.6861 64.0605 82.1248 64.0605C82.5655 64.0605 82.9062 63.8934 83.1482 63.5581C83.3099 63.3346 83.3909 62.968 83.3909 62.4598V58.9489H84.2613V62.7017C84.2613 63.3157 84.0716 63.8214 83.6934 64.2189C83.2675 64.6621 82.7449 64.8839 82.1248 64.8839C81.5046 64.8839 80.9824 64.6621 80.5594 64.2189C80.1813 63.8214 79.9924 63.3157 79.9924 62.7017V58.9489H80.8623Z" fill="white"/>
<path d="M86.4619 64.7776V58.5524L90.6678 62.9995V58.9483H91.5377V65.1323L87.3326 60.6963V64.7776H86.4619Z" fill="white"/>
<path d="M94.6083 64.7777H93.7384V58.9484H94.6083V64.7777Z" fill="white"/>
<path d="M97.1039 58.9483L98.6988 62.9879L100.316 58.9483H101.269L98.6799 65.2154L96.1516 58.9483H97.1039Z" fill="white"/>
<path d="M105.987 59.7755H103.675V61.1762H105.92V62.003H103.675V63.9506H105.987V64.7777H102.804V58.9484H105.987V59.7755Z" fill="white"/>
<path d="M108.819 61.6256H109.095C109.919 61.6256 110.331 61.3071 110.331 60.6709C110.331 60.0738 109.931 59.7755 109.128 59.7755H108.819V61.6256ZM109.902 62.2935L111.687 64.7777H110.623L108.975 62.3926H108.819V64.7777H107.949V58.9492H108.968C109.73 58.9492 110.28 59.0937 110.619 59.3834C110.992 59.7056 111.179 60.1306 111.179 60.659C111.179 61.0726 111.062 61.4269 110.828 61.724C110.594 62.0211 110.285 62.2108 109.902 62.2935Z" fill="white"/>
<path d="M116.633 59.818L115.927 60.2406C115.795 60.0097 115.67 59.8579 115.55 59.7879C115.425 59.7069 115.264 59.6669 115.068 59.6669C114.826 59.6669 114.626 59.7365 114.467 59.8743C114.307 60.0101 114.228 60.1813 114.228 60.3879C114.228 60.6726 114.437 60.9018 114.855 61.0747L115.43 61.3129C115.898 61.5039 116.241 61.7372 116.457 62.0129C116.674 62.2886 116.783 62.6268 116.783 63.0268C116.783 63.5626 116.606 64.0062 116.252 64.356C115.896 64.7078 115.454 64.8839 114.926 64.8839C114.426 64.8839 114.012 64.7341 113.686 64.4354C113.364 64.1358 113.164 63.7136 113.085 63.1704L113.966 62.9737C114.006 63.3165 114.075 63.5527 114.175 63.6836C114.354 63.9354 114.616 64.0613 114.96 64.0613C115.231 64.0613 115.456 63.9691 115.636 63.7856C115.815 63.6021 115.905 63.3692 115.905 63.0873C115.905 62.9737 115.889 62.87 115.858 62.7754C115.827 62.6816 115.778 62.5943 115.712 62.5153C115.646 62.4359 115.561 62.3618 115.456 62.2923C115.352 62.2232 115.227 62.1573 115.083 62.0948L114.526 61.8602C113.737 61.5232 113.343 61.0298 113.343 60.3805C113.343 59.9426 113.508 59.576 113.839 59.2814C114.17 58.9847 114.583 58.8361 115.075 58.8361C115.74 58.8361 116.26 59.1633 116.633 59.818Z" fill="white"/>
<path d="M119.52 64.7777H118.65V58.9484H119.52V64.7777Z" fill="white"/>
<path d="M123.316 59.7755V64.7777H122.446V59.7755H121.119V58.9484H124.638V59.7755H123.316Z" fill="white"/>
<path d="M127.399 62.2597L125.516 58.9484H126.517L127.836 61.2779L129.158 58.9484H130.159L128.269 62.2597V64.7777H127.399V62.2597Z" fill="white"/>
<path d="M50.2768 68.8221V73.8243H51.9726V74.6514H49.4069V68.8221H50.2768Z" fill="white"/>
<path d="M54.4865 74.6499H53.6166V68.8206H54.4865V74.6499Z" fill="white"/>
<path d="M59.9515 69.6902L59.2453 70.1128C59.1132 69.8819 58.9881 69.7301 58.8684 69.6601C58.7437 69.5791 58.5828 69.5392 58.3865 69.5392C58.145 69.5392 57.9442 69.6087 57.7853 69.7465C57.6257 69.8823 57.5463 70.0535 57.5463 70.2601C57.5463 70.5449 57.7553 70.7741 58.1734 70.9469L58.7491 71.1851C59.2169 71.3761 59.5593 71.6094 59.7758 71.8851C59.9926 72.1608 60.1012 72.4986 60.1012 72.899C60.1012 73.4348 59.9239 73.8784 59.57 74.2282C59.2145 74.58 58.7725 74.7561 58.2446 74.7561C57.7442 74.7561 57.3302 74.6063 57.0047 74.3076C56.6829 74.008 56.4829 73.5858 56.4031 73.0418L57.285 72.846C57.3249 73.1883 57.394 73.4249 57.4936 73.5558C57.673 73.8076 57.9343 73.9335 58.2783 73.9335C58.5499 73.9335 58.775 73.8414 58.9544 73.6578C59.1338 73.4743 59.2231 73.2414 59.2231 72.9595C59.2231 72.846 59.2075 72.7423 59.1766 72.6476C59.1453 72.5538 59.0968 72.4665 59.0305 72.3875C58.9647 72.3081 58.8795 72.2341 58.775 72.1645C58.6705 72.0954 58.5454 72.0295 58.4018 71.967L57.845 71.7324C57.0557 71.3954 56.6611 70.902 56.6611 70.2527C56.6611 69.8149 56.8261 69.4482 57.1578 69.1536C57.4886 68.8569 57.9014 68.7083 58.3939 68.7083C59.0585 68.7083 59.5782 69.0355 59.9515 69.6902Z" fill="white"/>
<path d="M62.8396 73.8243H63.377C63.7712 73.8243 64.0597 73.7465 64.2436 73.5905C64.4383 73.4214 64.535 73.2078 64.535 72.9486C64.535 72.6968 64.4416 72.4853 64.2547 72.3145C64.0733 72.1458 63.7482 72.0614 63.2803 72.0614H62.8396V73.8243ZM62.8396 71.3252H63.1124C63.4359 71.3252 63.6729 71.2528 63.8239 71.108C63.9741 70.9631 64.0498 70.75 64.0498 70.4681C64.0498 70.1936 63.9725 69.9854 63.8177 69.8438C63.6634 69.7011 63.4396 69.6299 63.1462 69.6299H62.8396V71.3252ZM61.9697 74.6514V68.8221H62.8359C63.2215 68.8221 63.5293 68.8521 63.7581 68.9122C63.9902 68.9731 64.1856 69.0752 64.3445 69.2188C64.5066 69.3673 64.635 69.5521 64.7296 69.7739C64.8263 69.9977 64.8749 70.2237 64.8749 70.4529C64.8749 70.8709 64.7165 71.2244 64.4004 71.5137C64.707 71.6195 64.9485 71.8042 65.1255 72.0688C65.3049 72.3305 65.3946 72.635 65.3946 72.9823C65.3946 73.4379 65.2349 73.823 64.916 74.1374C64.7239 74.3312 64.5091 74.4658 64.2704 74.5415C64.0078 74.6143 63.6807 74.6514 63.2873 74.6514H61.9697Z" fill="white"/>
<path d="M67.901 71.7213C67.901 72.3653 68.1154 72.8953 68.5433 73.3105C68.9692 73.7261 69.461 73.9335 70.0186 73.9335C70.6239 73.9335 71.1341 73.7224 71.5502 73.2994C71.9662 72.8719 72.174 72.3505 72.174 71.7366C72.174 71.1148 71.9687 70.5938 71.558 70.1733C71.1498 69.7511 70.6436 69.5392 70.0416 69.5392C69.4408 69.5392 68.9343 69.7511 68.5211 70.1733C68.108 70.5918 67.901 71.1074 67.901 71.7213ZM67.0229 71.7098C67.0229 70.8901 67.3208 70.1852 67.9158 69.5964C68.5088 69.0067 69.2211 68.7129 70.0523 68.7129C70.8741 68.7129 71.579 69.0091 72.1666 69.6038C72.7567 70.1976 73.0517 70.9107 73.0517 71.744C73.0517 72.5822 72.7554 73.2932 72.1629 73.8772C71.5679 74.4636 70.8494 74.7561 70.0075 74.7561C69.2635 74.7561 68.5944 74.4965 68.0022 73.9755C67.3496 73.3986 67.0229 72.6435 67.0229 71.7098Z" fill="white"/>
<path d="M74.9648 74.6508V68.4256L79.1707 72.8727V68.8215H80.0406V75.0055L75.8347 70.5695V74.6508H74.9648Z" fill="white"/>
<path d="M22.9072 0C25.7428 0 28.4852 0.753705 30.8809 2.13086C33.2302 0.775818 35.9563 0 38.8633 0L46.2568 0C46.7517 5.60015e-06 47.2412 0.0243822 47.7246 0.0683594C48.2082 0.024354 48.6983 0 49.1934 0L57.1436 0C60.216 8.38734e-05 63.0853 0.867782 65.5225 2.36914C67.9596 0.867785 70.8289 7.95674e-05 73.9014 0L81.8516 0C82.1071 0 82.3616 0.00670433 82.6143 0.0185547C82.6486 0.0183085 82.6834 0.0166269 82.7178 0.0166016C86.0705 0.0141335 89.4242 0.0111035 92.7773 0.0078125L93.3936 0.0195312C96.4392 0.133297 99.3191 1.11018 101.749 2.75195C104.334 1.00966 107.427 0.0196475 110.686 0.0185547L120.523 0.0146484C121.714 0.0142503 122.887 0.147741 124.024 0.402344C125.166 0.144665 126.346 0.00979296 127.549 0.00976562L136.577 0.00976562C143 0.00976562 148.8 3.8505 151.308 9.76367C156.103 21.0736 160.899 32.3853 165.693 43.6943C167.788 48.6339 167.267 54.2942 164.307 58.7686C161.346 63.2429 156.34 65.9355 150.975 65.9395C148.833 65.941 146.69 65.9424 144.548 65.9443C144.424 66.1989 144.291 66.4499 144.153 66.6992C143.204 74.6296 136.456 80.7773 128.27 80.7773H127.398C126.707 80.7773 126.025 80.7336 125.356 80.6484C124.688 80.7335 124.007 80.7773 123.315 80.7773H122.445C121.952 80.7773 121.464 80.7536 120.982 80.71C120.501 80.7536 120.013 80.7773 119.521 80.7773H118.65C118.205 80.7773 117.763 80.7584 117.326 80.7227C116.528 80.8293 115.726 80.8838 114.926 80.8838C114.194 80.8838 113.445 80.8384 112.686 80.7441C112.354 80.7648 112.021 80.7773 111.687 80.7773H110.623C110.322 80.7773 110.021 80.7678 109.723 80.751C109.423 80.7676 109.122 80.7773 108.818 80.7773H107.949C107.619 80.7773 107.292 80.7658 106.967 80.7461C106.643 80.7657 106.316 80.7773 105.986 80.7773H102.804C102.672 80.7773 102.54 80.7756 102.409 80.7725C101.184 81.0662 99.9111 81.2202 98.6133 81.2148C97.3651 81.2096 96.1418 81.0582 94.9619 80.7764C93.3866 84.8468 90.1796 88.1884 85.9668 89.8682C82.9238 91.0814 79.6642 91.3055 76.6025 90.6318C76.3482 90.6439 76.0923 90.6504 75.835 90.6504H74.9648C74.2892 90.6504 73.6233 90.6086 72.9697 90.5273C71.9965 90.6782 71.0069 90.7558 70.0078 90.7559C68.7759 90.7559 67.5752 90.6374 66.415 90.4141C65.1915 90.6033 64.1172 90.6514 63.2871 90.6514H61.9697C61.5231 90.6514 61.0809 90.6316 60.6436 90.5957C59.8455 90.7022 59.0434 90.7559 58.2441 90.7559C57.4555 90.7558 56.6466 90.7027 55.8271 90.5928C55.3851 90.6294 54.9379 90.6494 54.4863 90.6494H53.6162C53.347 90.6494 53.0794 90.6421 52.8135 90.6289C52.535 90.6433 52.2547 90.6514 51.9727 90.6514H49.4072C40.5707 90.6514 33.4072 83.4879 33.4072 74.6514V68.8223C33.4072 68.1366 33.4495 67.4608 33.5332 66.7979C33.4498 66.1362 33.4072 65.4617 33.4072 64.7773V64.5762C32.8005 64.3075 32.2106 64.0022 31.6416 63.6602C29.233 65.1121 26.4109 65.9482 23.3936 65.9482H16C7.16346 65.9482 2.06162e-05 58.7848 0 49.9482L0 16C0 7.16344 7.16344 0 16 0L22.9072 0ZM74.9648 74.6504H75.835V70.5693L80.041 75.0059V68.8213H79.1709V72.873L74.9648 68.4258V74.6504ZM58.3936 68.708C57.9013 68.7081 57.4889 68.8569 57.1582 69.1533C56.8265 69.448 56.6611 69.8151 56.6611 70.2529C56.6612 70.9021 57.0557 71.3954 57.8447 71.7324L58.4014 71.9668C58.545 72.0293 58.6709 72.0949 58.7754 72.1641C58.8799 72.2336 58.9645 72.3083 59.0303 72.3877C59.0965 72.4667 59.1455 72.5537 59.1768 72.6475C59.2076 72.7421 59.2227 72.8464 59.2227 72.96C59.2226 73.2416 59.1334 73.4748 58.9541 73.6582C58.7747 73.8415 58.5497 73.9336 58.2783 73.9336C57.9343 73.9336 57.6726 73.8075 57.4932 73.5557C57.3937 73.4248 57.325 73.1878 57.2852 72.8457L56.4033 73.042C56.4832 73.5859 56.6831 74.0081 57.0049 74.3076C57.3303 74.6062 57.744 74.7558 58.2441 74.7559C58.7721 74.7559 59.2148 74.5803 59.5703 74.2285C59.9241 73.8788 60.1015 73.435 60.1016 72.8994C60.1016 72.499 59.9923 72.1605 59.7754 71.8848C59.5589 71.6092 59.2166 71.3764 58.749 71.1855L58.1738 70.9473C57.7557 70.7744 57.5459 70.5445 57.5459 70.2598C57.546 70.0533 57.6256 69.8818 57.7852 69.7461C57.944 69.6083 58.1452 69.5391 58.3867 69.5391C58.5828 69.5391 58.7435 69.5792 58.8682 69.6602C58.9878 69.7301 59.1131 69.8817 59.2451 70.1123L59.9512 69.6904C59.5779 69.0357 59.0581 68.708 58.3936 68.708ZM70.0527 68.7129C69.2215 68.7129 68.509 69.007 67.916 69.5967C67.321 70.1855 67.0225 70.8903 67.0225 71.71C67.0225 72.6435 67.3494 73.3987 68.002 73.9756C68.5941 74.4965 69.2638 74.7559 70.0078 74.7559C70.8496 74.7558 71.5681 74.4633 72.1631 73.877C72.7555 73.2931 73.0517 72.5822 73.0518 71.7441C73.0518 70.9109 72.757 70.1973 72.167 69.6035C71.5795 69.009 70.8743 68.713 70.0527 68.7129ZM49.4072 68.8223V74.6514H51.9727V73.8242H50.2764V68.8223H49.4072ZM61.9697 68.8223V74.6514H63.2871C63.6805 74.6514 64.008 74.6139 64.2705 74.541C64.509 74.4653 64.724 74.3314 64.916 74.1377C65.2349 73.8233 65.3945 73.4379 65.3945 72.9824C65.3945 72.6351 65.3044 72.3301 65.125 72.0684C64.9481 71.804 64.7068 71.6194 64.4004 71.5137C64.7164 71.2245 64.8749 70.8711 64.875 70.4531C64.875 70.2239 64.8262 69.9973 64.7295 69.7734C64.6349 69.5519 64.5067 69.3672 64.3447 69.2188C64.1859 69.0751 63.9899 68.973 63.7578 68.9121C63.5291 68.8521 63.2213 68.8223 62.8359 68.8223H61.9697ZM53.6162 68.8203V74.6494H54.4863V68.8203H53.6162ZM70.042 69.5391C70.6437 69.5392 71.1496 69.751 71.5576 70.1729C71.9682 70.5934 72.1738 71.1147 72.1738 71.7363C72.1738 72.3503 71.9658 72.8723 71.5498 73.2998C71.1338 73.7226 70.6237 73.9336 70.0186 73.9336C69.461 73.9336 68.9689 73.7262 68.543 73.3105C68.1152 72.8954 67.9014 72.3654 67.9014 71.7217C67.9014 71.1077 68.1083 70.5913 68.5215 70.1729C68.9346 69.7509 69.4414 69.5391 70.042 69.5391ZM63.2803 72.0615C63.7481 72.0615 64.0734 72.1457 64.2549 72.3145C64.4416 72.4851 64.5351 72.6966 64.5352 72.9482C64.5352 73.2075 64.4378 73.4217 64.2432 73.5908C64.0592 73.7465 63.7709 73.8242 63.377 73.8242H62.8398V72.0615H63.2803ZM63.1465 69.6299C63.4396 69.6299 63.6631 69.7012 63.8174 69.8438C63.972 69.9853 64.0497 70.1935 64.0498 70.4678C64.0498 70.7496 63.9744 70.9636 63.8242 71.1084C63.6732 71.2532 63.4357 71.3252 63.1123 71.3252H62.8398V69.6299H63.1465ZM63.6758 58.9482L66.2041 65.2158L68.793 58.9482H67.8398L66.2236 62.9883L64.6279 58.9482H63.6758ZM96.1514 58.9482L98.6797 65.2158L101.269 58.9482H100.316L98.6992 62.9883L97.1035 58.9482H96.1514ZM49.4072 64.7773H50.2764V60.6963L54.4824 65.1318V58.9482H53.6133V62.999L49.4072 58.5527V64.7773ZM86.4619 64.7773H87.333V60.6963L91.5381 65.1318V58.9482H90.668V62.999L86.4619 58.5527V64.7773ZM59.4238 58.8398C58.5928 58.84 57.8805 59.1349 57.2881 59.7236C56.6931 60.3124 56.3956 61.0173 56.3955 61.8369C56.3955 62.7705 56.7216 63.5256 57.374 64.1025C57.9666 64.6235 58.6355 64.8838 59.3799 64.8838C60.2213 64.8838 60.9394 64.5911 61.5352 64.0049C62.1277 63.421 62.4238 62.7093 62.4238 61.8711C62.4238 61.038 62.1289 60.3252 61.5381 59.7314C60.9513 59.1368 60.246 58.8398 59.4238 58.8398ZM79.9922 58.9492V62.7021C79.9923 63.3159 80.1815 63.8213 80.5596 64.2188C80.9826 64.6619 81.5049 64.8838 82.125 64.8838C82.745 64.8837 83.2675 64.6619 83.6934 64.2188C84.0714 63.8213 84.2616 63.3159 84.2617 62.7021V58.9492H83.3906V62.46C83.3906 62.9677 83.3099 63.3342 83.1484 63.5576C82.9065 63.8929 82.5656 64.0605 82.125 64.0605C81.6863 64.0605 81.3465 63.893 81.1045 63.5576C80.9434 63.3264 80.8623 62.9604 80.8623 62.46V58.9492H79.9922ZM115.075 58.8359C114.583 58.836 114.17 58.9846 113.839 59.2812C113.508 59.5759 113.343 59.9431 113.343 60.3809C113.343 61.03 113.737 61.5234 114.526 61.8604L115.083 62.0947C115.226 62.1572 115.352 62.223 115.456 62.292C115.561 62.3615 115.646 62.4362 115.712 62.5156C115.778 62.5946 115.827 62.6816 115.858 62.7754C115.89 62.8699 115.904 62.9735 115.904 63.0869C115.904 63.3687 115.815 63.6017 115.636 63.7852C115.456 63.9686 115.231 64.0615 114.96 64.0615C114.616 64.0615 114.354 63.9354 114.175 63.6836C114.075 63.5527 114.007 63.3163 113.967 62.9736L113.085 63.1709C113.165 63.7138 113.365 64.1361 113.687 64.4355C114.012 64.7341 114.426 64.8838 114.926 64.8838C115.454 64.8838 115.896 64.7073 116.252 64.3555C116.605 64.0057 116.782 63.5621 116.782 63.0264C116.782 62.6266 116.674 62.2883 116.457 62.0127C116.241 61.7371 115.898 61.5034 115.431 61.3125L114.854 61.0742C114.437 60.9014 114.228 60.6724 114.228 60.3877C114.228 60.1812 114.307 60.0098 114.467 59.874C114.626 59.7363 114.827 59.667 115.068 59.667C115.264 59.667 115.425 59.7071 115.55 59.7881C115.669 59.858 115.796 60.0096 115.927 60.2402L116.633 59.8184C116.26 59.1637 115.74 58.8359 115.075 58.8359ZM69.667 64.7773H70.6045L71.2471 63.3623H73.7158L74.3203 64.7773H75.2734L72.5205 58.583L69.667 64.7773ZM93.7383 58.9482V64.7773H94.6084V58.9482H93.7383ZM102.804 58.9482V64.7773H105.986V63.9502H103.675V62.0029H105.92V61.1758H103.675V59.7754H105.986V58.9482H102.804ZM107.949 58.9492V64.7773H108.818V62.3926H108.975L110.623 64.7773H111.687L109.901 62.2939C110.284 62.2112 110.593 62.0207 110.827 61.7236C111.062 61.4266 111.179 61.0727 111.179 60.6592C111.179 60.131 110.992 59.706 110.619 59.3838C110.28 59.0941 109.729 58.9492 108.968 58.9492H107.949ZM118.65 58.9482V64.7773H119.521V58.9482H118.65ZM121.119 58.9482V59.7754H122.445V64.7773H123.315V59.7754H124.638V58.9482H121.119ZM125.516 58.9482L127.398 62.2598V64.7773H128.27V62.2598L130.159 58.9482H129.158L127.836 61.2783L126.517 58.9482H125.516ZM59.4131 59.667C60.0159 59.667 60.5215 59.8786 60.9297 60.3008C61.3407 60.7213 61.5459 61.2426 61.5459 61.8643C61.5458 62.478 61.3387 62.9993 60.9229 63.4268C60.5068 63.8498 59.9955 64.0605 59.3906 64.0605C58.8332 64.0605 58.3418 63.853 57.916 63.4375C57.4881 63.0227 57.2734 62.4926 57.2734 61.8486C57.2735 61.2347 57.4796 60.7193 57.8936 60.3008C58.3067 59.8786 58.8132 59.667 59.4131 59.667ZM73.3613 62.5352H71.6094L72.5049 60.5537L73.3613 62.5352ZM109.128 59.7754C109.93 59.7754 110.331 60.0738 110.331 60.6709C110.331 61.3071 109.919 61.626 109.095 61.626H108.818V59.7754H109.128ZM127.549 16.0098C123.111 26.4782 118.672 36.9461 114.234 47.4141C113.877 48.2564 113.521 49.0991 113.163 49.9414L123.001 49.9375C125.993 42.3129 128.984 34.688 131.976 27.0635C134.95 34.691 137.926 42.3199 140.899 49.9482C144.254 49.945 147.609 49.9419 150.963 49.9395C146.168 38.6295 141.373 27.3193 136.577 16.0098H127.549ZM65.5225 33.6172C56.5182 33.6172 49.1936 40.9429 49.1934 49.9463H57.1436C57.1438 45.3262 60.9023 41.5674 65.5225 41.5674C70.1426 41.5674 73.9011 45.3262 73.9014 49.9463H81.8516C81.8513 40.9429 74.5267 33.6172 65.5225 33.6172ZM82.7295 16.0166C87.5246 27.3265 92.3205 38.6368 97.1152 49.9463H106.143C110.581 39.4779 115.019 29.01 119.457 18.542C119.814 17.6997 120.173 16.857 120.529 16.0146L110.69 16.0186C107.699 23.6429 104.708 31.2674 101.717 38.8926L92.793 16.0078C89.4385 16.0111 86.0835 16.0141 82.7295 16.0166ZM49.1934 16C49.1934 25.0036 56.5181 32.3291 65.5225 32.3291C74.5269 32.3291 81.8516 25.0036 81.8516 16H73.9014C73.9014 20.6199 70.1428 24.3799 65.5225 24.3799C60.9022 24.3799 57.1436 20.6199 57.1436 16H49.1934ZM23.3936 49.9482V28.3672L39.8848 49.9482H46.2568V16H38.8633V36.9014L22.9072 16H16V49.9482H23.3936Z" fill="url(#paint0_linear_2344_3767)"/>
<defs>
<linearGradient id="paint0_linear_2344_3767" x1="38.2478" y1="31.2459" x2="121.524" y2="70.2035" gradientUnits="userSpaceOnUse">
<stop stop-color="#1E2749" offset=""/>
<stop offset="0.5" stop-color="#101828"/>
<stop offset="1" stop-color="#27202F"/>
</linearGradient>
</defs>
</svg>
