<svg width="200" height="56" viewBox="0 0 200 56" fill="none" xmlns="http://www.w3.org/2000/svg">
<g clip-path="url(#clip0_2210_3199)">
<path d="M128.088 32.2101C123.537 21.4763 118.987 10.7421 114.435 0.00875854H105.867C101.655 9.94389 97.4428 19.8786 93.2308 29.8134C92.8918 30.6128 92.5532 31.4122 92.2139 32.2116L101.551 32.2085C104.39 24.9723 107.229 17.7362 110.068 10.5C112.891 17.7389 115.715 24.9786 118.537 32.2183C121.721 32.2151 124.905 32.2124 128.088 32.2101Z" fill="black"/>
<path d="M63.3301 0.0154953C67.881 10.7493 72.4323 21.4834 76.9829 32.2168H85.5513C89.7632 22.2817 93.9755 12.3469 98.1875 2.41219C98.5265 1.61277 98.8658 0.813353 99.2044 0.0139351L89.8675 0.0170555C87.0283 7.25322 84.1891 14.4894 81.3502 21.7263L72.8811 0.0072937C69.6974 0.0104179 66.5133 0.0131531 63.3301 0.0154953Z" fill="black"/>
<path d="M21.6983 -0.000217438V19.8365L6.55556 -0.000217438H0V32.2183H7.01717V11.7364L22.668 32.2183H28.7154V-0.000217438H21.6983Z" fill="black"/>
<path d="M46.9996 24.2644C51.3846 24.2644 54.9522 27.8319 54.9522 32.2168H62.4973C62.4973 23.672 55.5454 16.7193 46.9996 16.7193C38.4539 16.7193 31.502 23.672 31.502 32.2168H39.0471C39.0471 27.8319 42.6147 24.2644 46.9996 24.2644Z" fill="#348041"/>
<path d="M46.9996 7.95229C42.6147 7.95229 39.0471 4.38439 39.0471 -0.000107765H31.502C31.502 8.54473 38.4539 15.4966 46.9996 15.4966C55.5454 15.4966 62.4973 8.54473 62.4973 -0.000107765H54.9522C54.9522 4.38439 51.3846 7.95229 46.9996 7.95229Z" fill="black"/>
<path d="M31.7051 46.2913V40.3833L35.6968 44.6038V40.759H36.5224V46.6279L32.5307 42.418V46.2913H31.7051Z" fill="black"/>
<path d="M39.1703 43.513C39.1703 44.1242 39.3738 44.6276 39.7799 45.0212C40.1842 45.4157 40.6508 45.6125 41.18 45.6125C41.7541 45.6125 42.2388 45.4121 42.6336 45.0107C43.0284 44.6049 43.2257 44.1101 43.2257 43.5274C43.2257 42.9373 43.0304 42.4429 42.6402 42.0438C42.2528 41.6431 41.7733 41.442 41.2011 41.442C40.6317 41.442 40.151 41.6431 39.7589 42.0438C39.366 42.441 39.1703 42.9303 39.1703 43.513ZM38.3369 43.5021C38.3369 42.7241 38.6197 42.0551 39.1844 41.4963C39.7468 40.9374 40.4228 40.6578 41.2117 40.6578C41.992 40.6578 42.6609 40.939 43.2178 41.5033C43.7787 42.0669 44.0587 42.7436 44.0587 43.5345C44.0587 44.33 43.7775 45.0048 43.2151 45.559C42.6496 46.1155 41.9681 46.3936 41.1695 46.3936C40.463 46.3936 39.8284 46.1467 39.266 45.6523C38.6466 45.1048 38.3369 44.3882 38.3369 43.5021Z" fill="black"/>
<path d="M46.1508 40.7607L47.6649 44.5945L49.1989 40.7607H50.1034L47.6465 46.7085L45.2471 40.7607H46.1508Z" fill="black"/>
<path d="M54.4389 44.1645L53.6265 42.2833L52.7763 44.1645H54.4389ZM54.7755 44.9494H52.4327L51.8223 46.2925H50.9326L53.641 40.4134L56.2533 46.2925H55.3496L54.7755 44.9494Z" fill="black"/>
<path d="M61.559 40.7609V44.0929C61.559 44.5682 61.6359 44.9158 61.789 45.1353C62.0187 45.4535 62.3408 45.6121 62.7572 45.6121C63.1754 45.6121 63.4988 45.4535 63.7284 45.1353C63.8819 44.9232 63.9588 44.5752 63.9588 44.0929V40.7609H64.7848V44.3226C64.7848 44.9052 64.6048 45.3852 64.2459 45.7625C63.8417 46.1831 63.3457 46.3936 62.7572 46.3936C62.1686 46.3936 61.673 46.1831 61.2716 45.7625C60.9127 45.3852 60.7334 44.9052 60.7334 44.3226V40.7609H61.559Z" fill="black"/>
<path d="M66.873 46.2913V40.3833L70.8647 44.6038V40.759H71.6903V46.6279L67.6994 42.418V46.2913H66.873Z" fill="black"/>
<path d="M74.6039 46.2925H73.7783V40.7602H74.6039V46.2925Z" fill="black"/>
<path d="M76.974 40.7607L78.4877 44.5945L80.0229 40.7607H80.9266L78.4698 46.7085L76.0703 40.7607H76.974Z" fill="black"/>
<path d="M85.4032 41.5452H83.2092V42.8745H85.3396V43.6591H83.2092V45.5075H85.4032V46.2925H82.3828V40.7602H85.4032V41.5452Z" fill="black"/>
<path d="M88.0902 43.301H88.3523C89.1345 43.301 89.5255 42.9987 89.5255 42.395C89.5255 41.8283 89.1455 41.5452 88.3839 41.5452H88.0902V43.301ZM89.1181 43.9348L90.8123 46.2925H89.8024L88.2386 44.029H88.0902V46.2925H87.2646V40.761H88.232C88.9549 40.761 89.477 40.8981 89.7988 41.173C90.1531 41.4788 90.3304 41.8822 90.3304 42.3836C90.3304 42.7761 90.2195 43.1124 89.9968 43.3943C89.775 43.6763 89.4817 43.8563 89.1181 43.9348Z" fill="black"/>
<path d="M95.5063 41.5857L94.8361 41.9868C94.7115 41.7677 94.592 41.6236 94.4784 41.5572C94.36 41.4803 94.2073 41.4424 94.0211 41.4424C93.7918 41.4424 93.6012 41.5084 93.4505 41.6392C93.299 41.7681 93.2236 41.9306 93.2236 42.1266C93.2236 42.3969 93.422 42.6144 93.8188 42.7784L94.3651 43.0045C94.8092 43.1857 95.1341 43.4072 95.3395 43.6688C95.5453 43.9305 95.6484 44.2515 95.6484 44.6311C95.6484 45.1396 95.4805 45.5606 95.145 45.8925C94.8068 46.2264 94.3874 46.3936 93.8863 46.3936C93.4114 46.3936 93.0186 46.2514 92.7096 45.9679C92.4042 45.6836 92.2144 45.2829 92.1387 44.7674L92.9756 44.5807C93.0135 44.906 93.0791 45.1302 93.1736 45.2544C93.3439 45.4934 93.5919 45.6129 93.9184 45.6129C94.1761 45.6129 94.3897 45.5254 94.56 45.3512C94.7303 45.177 94.815 44.956 94.815 44.6885C94.815 44.5807 94.8006 44.4823 94.7709 44.3925C94.7412 44.3034 94.6951 44.2206 94.6323 44.1457C94.5698 44.0703 94.4889 44 94.3897 43.934C94.2905 43.8684 94.1718 43.8059 94.0355 43.7465L93.5071 43.5239C92.7581 43.2041 92.3835 42.7358 92.3835 42.1196C92.3835 41.704 92.5409 41.3561 92.8549 41.0765C93.1689 40.7949 93.5606 40.6539 94.0281 40.6539C94.6588 40.6539 95.1521 40.9644 95.5063 41.5857Z" fill="black"/>
<path d="M98.2465 46.2925H97.4209V40.7602H98.2465V46.2925Z" fill="black"/>
<path d="M101.849 41.5452V46.2925H101.023V41.5452H99.7646V40.7602H103.104V41.5452H101.849Z" fill="black"/>
<path d="M105.724 43.9028L103.938 40.7602H104.887L106.139 42.971L107.394 40.7602H108.344L106.551 43.9028V46.2925H105.724V43.9028Z" fill="black"/>
<path d="M32.5307 50.1318V54.8791H34.1401V55.6641H31.7051V50.1318H32.5307Z" fill="black"/>
<path d="M36.5258 55.6626H35.7002V50.1303H36.5258V55.6626Z" fill="black"/>
<path d="M41.7123 50.9553L41.0422 51.3564C40.9168 51.1373 40.7981 50.9932 40.6844 50.9268C40.5661 50.8499 40.4134 50.812 40.2271 50.812C39.9979 50.812 39.8073 50.878 39.6565 51.0089C39.505 51.1377 39.4296 51.3002 39.4296 51.4962C39.4296 51.7665 39.628 51.984 40.0248 52.148L40.5712 52.3741C41.0152 52.5554 41.3401 52.7768 41.5456 53.0384C41.7514 53.3001 41.8545 53.6207 41.8545 54.0007C41.8545 54.5092 41.6862 54.9302 41.3503 55.2621C41.0129 55.596 40.5934 55.7632 40.0924 55.7632C39.6175 55.7632 39.2246 55.621 38.9157 55.3375C38.6103 55.0532 38.4205 54.6525 38.3447 54.1362L39.1816 53.9503C39.2195 54.2753 39.2851 54.4998 39.3797 54.624C39.5499 54.863 39.7979 54.9825 40.1244 54.9825C40.3822 54.9825 40.5958 54.895 40.7661 54.7209C40.9363 54.5467 41.0211 54.3256 41.0211 54.0581C41.0211 53.9503 41.0062 53.8519 40.9769 53.7621C40.9473 53.6731 40.9012 53.5903 40.8383 53.5153C40.7758 53.4399 40.695 53.3696 40.5958 53.3036C40.4966 53.238 40.3779 53.1755 40.2416 53.1162L39.7132 52.8936C38.9641 52.5737 38.5896 52.1055 38.5896 51.4892C38.5896 51.0737 38.7462 50.7257 39.061 50.4461C39.375 50.1645 39.7667 50.0235 40.2341 50.0235C40.8649 50.0235 41.3581 50.334 41.7123 50.9553Z" fill="black"/>
<path d="M44.4545 54.8791H44.9645C45.3387 54.8791 45.6124 54.8053 45.787 54.6573C45.9717 54.4968 46.0635 54.2941 46.0635 54.048C46.0635 53.809 45.9749 53.6083 45.7976 53.4462C45.6253 53.2861 45.3168 53.2061 44.8728 53.2061H44.4545V54.8791ZM44.4545 52.5074H44.7134C45.0204 52.5074 45.2453 52.4387 45.3887 52.3012C45.5312 52.1637 45.6031 51.9614 45.6031 51.6939C45.6031 51.4334 45.5297 51.2358 45.3828 51.1015C45.2364 50.966 45.0239 50.8984 44.7455 50.8984H44.4545V52.5074ZM43.6289 55.6641V50.1318H44.451C44.8169 50.1318 45.109 50.1603 45.3262 50.2173C45.5464 50.2751 45.7319 50.372 45.8827 50.5083C46.0366 50.6492 46.1584 50.8246 46.2482 51.0351C46.34 51.2475 46.3861 51.4619 46.3861 51.6795C46.3861 52.0762 46.2357 52.4117 45.9358 52.6863C46.2268 52.7866 46.456 52.962 46.6239 53.2131C46.7942 53.4615 46.8793 53.7505 46.8793 54.0801C46.8793 54.5124 46.7278 54.8779 46.4252 55.1763C46.2428 55.3602 46.0389 55.4879 45.8124 55.5598C45.5632 55.6289 45.2528 55.6641 44.8794 55.6641H43.6289Z" fill="black"/>
<path d="M49.2572 52.883C49.2572 53.4942 49.4607 53.9972 49.8669 54.3912C50.2711 54.7857 50.7378 54.9825 51.2669 54.9825C51.8414 54.9825 52.3257 54.7822 52.7205 54.3807C53.1154 53.9749 53.3126 53.4801 53.3126 52.8975C53.3126 52.3074 53.1177 51.813 52.7279 51.4138C52.3405 51.0131 51.8602 50.812 51.2888 50.812C50.7186 50.812 50.2379 51.0131 49.8458 51.4138C49.4537 51.811 49.2572 52.3003 49.2572 52.883ZM48.4238 52.8721C48.4238 52.0941 48.7066 51.4252 49.2713 50.8663C49.8341 50.3067 50.5101 50.0278 51.299 50.0278C52.0789 50.0278 52.7479 50.309 53.3055 50.8733C53.8656 51.4369 54.1456 52.1137 54.1456 52.9045C54.1456 53.7 53.8644 54.3748 53.302 54.929C52.7373 55.4855 52.0554 55.7632 51.2564 55.7632C50.5503 55.7632 49.9153 55.5168 49.3533 55.0223C48.7339 54.4748 48.4238 53.7582 48.4238 52.8721Z" fill="black"/>
<path d="M55.9609 55.6634V49.7554L59.9526 53.9759V50.1311H60.7782V56L56.7865 51.7901V55.6634H55.9609Z" fill="black"/>
</g>
<defs>
<clipPath id="clip0_2210_3199">
<rect width="200" height="56" fill="white"/>
</clipPath>
</defs>
</svg>
