<svg width="199" height="56" viewBox="0 0 199 56" fill="none" xmlns="http://www.w3.org/2000/svg">
<path d="M31.1644 22.798C27.8215 22.798 26.8165 19.6908 26.8165 16.6171C26.8165 13.5106 27.8215 10.3987 31.1644 10.3987C34.5394 10.3987 35.5499 13.5106 35.5499 16.6171C35.5499 19.6908 34.5394 22.798 31.1644 22.798ZM31.1644 6.39187C25.5254 6.39187 21.873 10.4356 21.873 16.6171C21.873 22.7604 25.5254 26.8062 31.1644 26.8062C36.8363 26.8062 40.492 22.7604 40.492 16.6171C40.492 10.4356 36.8363 6.39187 31.1644 6.39187Z" fill="#1B6FC1"/>
<path d="M52.3274 26.2822L58.6297 6.91598H53.3023L49.4807 21.0978L45.6585 6.91598H40.3311L46.6334 26.2822H52.3274Z" fill="#1B6FC1"/>
<path d="M11.3146 49.8154C17.8775 49.8154 20.2152 45.4682 20.2152 40.3542V26.2785H17.9614V39.8298C17.9916 45.6072 15.6565 47.8019 11.3146 47.8019C6.97278 47.8019 4.63703 45.6072 4.66791 39.8298V26.2785H2.41406V40.3542C2.41406 45.4682 4.75183 49.8154 11.3146 49.8154Z" fill="#1B6FC1"/>
<path d="M41.9277 49.3003H44.1218V31.3352H41.9277V49.3003Z" fill="#1B6FC1"/>
<path d="M55.932 49.3003L62.8634 31.3352H60.427L54.7034 47.1082L48.9785 31.3352H46.542L53.4734 49.3003H55.932Z" fill="#1B6FC1"/>
<path d="M107.198 49.3003H109.392V31.3352H107.198V49.3003Z" fill="#1B6FC1"/>
<path d="M83.1534 26.2847V15.9453C83.1534 12.0136 84.3021 10.4023 86.9803 10.4023C89.2771 10.4023 90.1519 11.976 90.1519 15.1597V26.2847H95.0933V14.3755C95.0933 9.57847 93.768 6.39541 88.5111 6.39541C86.4257 6.39541 84.0665 7.45956 82.9083 9.61539V6.91506H78.21V26.2847H83.1534Z" fill="#1B6FC1"/>
<path d="M103.202 2.11255L98.2585 3.82862V6.91164H96.3779V10.4714H98.2585V20.4905C98.2585 25.1829 100.877 26.5068 103.908 26.5068C104.789 26.5068 105.761 26.4766 106.56 26.3585V22.2046C106.124 22.2798 105.707 22.31 105.262 22.31C103.591 22.31 103.202 21.8615 103.202 18.1923V10.4734H106.56V6.91164H103.202V2.11255Z" fill="#1B6FC1"/>
<path d="M25.8312 49.3003V38.8199C25.8997 35.3052 27.989 32.6606 31.4668 32.6606C35.0184 32.6606 36.0269 34.991 36.0269 38.0908V49.3003H38.2216V37.7416C38.2216 33.4629 36.3854 30.8142 31.6434 30.8142C29.1821 30.8142 26.518 32.3598 25.7191 34.5163V31.3352H23.6357V49.3003H25.8312Z" fill="#1B6FC1"/>
<path d="M84.6316 49.3003V39.7229C84.6316 36.0027 87.1231 33.0063 91.3146 33.0063V30.8129C87.8388 30.8129 85.6367 32.6606 84.5215 35.5502V31.3352H82.4375V49.3003H84.6316Z" fill="#1B6FC1"/>
<path d="M94.5221 35.5477C94.5221 33.1629 96.5645 32.5963 99.0399 32.5963C100.372 32.5963 102.145 33.024 103.41 33.6873V31.5657C101.745 31.0199 99.7562 30.8124 98.772 30.8124C95.4352 30.8124 92.2669 32.0954 92.2669 35.5477C92.2669 41.3096 102.115 40.2548 102.115 44.6592C102.115 46.9889 99.6622 48.0322 97.3775 48.0322C95.5117 48.0322 93.7037 47.5246 92.2568 46.8486V49.04C93.9071 49.616 95.746 49.8154 97.5299 49.8154C100.462 49.8154 104.365 48.4995 104.365 44.6592C104.365 38.5059 94.5221 39.0806 94.5221 35.5477Z" fill="#1B6FC1"/>
<path d="M129.786 49.3009C128.109 53.4313 126.027 55.7173 123.413 56L122.68 54.2906C125.394 53.8938 126.664 51.401 127.563 49.3009H126.303L120.011 33.0458H116.329V44.0815C116.329 46.0131 116.397 47.5875 117.93 47.5875C118.346 47.5875 119.072 47.5935 119.636 47.5338V49.3781C118.991 49.4197 118.312 49.4365 117.863 49.4365C115.004 49.4365 114.135 47.6043 114.135 44.1667V33.0458H111.785V31.3345H114.135V27.3914H116.347V31.3345H121.826L128.123 47.7996L134.649 31.3345H137.084L129.786 49.3009Z" fill="#1B6FC1"/>
<path d="M131.877 6.91173L127.328 21.0942L122.75 6.91173H118.662C115.219 6.91173 113.845 8.83794 113.302 10.4714V6.91173H108.604V26.2793H113.547V17.5909C113.547 13.3289 115.245 11.304 118.77 11.2314L123.874 26.2793H125.83C125.059 28.5808 124.557 29.7403 123.456 30.4876L125.071 34.7086L125.072 34.71C127.51 33.9177 129.443 29.9048 130.492 27.0017L137.07 6.91173H131.877Z" fill="#1B6FC1"/>
<path d="M16.6518 18.2923C15.9179 20.6582 14.2502 22.2132 11.6385 22.2132C6.96296 22.2132 5.2046 18.0358 5.2046 13.896C5.2046 9.54404 6.96296 5.36732 11.6385 5.36732C14.1038 5.36732 16.265 7.07869 16.7457 9.38291L21.4569 7.7474C20.1436 3.24573 16.2113 0.771655 11.6385 0.771655C4.31098 0.771655 0 6.51473 0 13.896C0 21.0631 4.31098 26.8062 11.6385 26.8062C16.3322 26.8062 19.8979 24.2059 21.3676 19.9298L16.6518 18.2923Z" fill="#1B6FC1"/>
<path d="M67.3589 10.3994C69.7578 10.3994 70.9266 11.8328 71.2912 14.519H63.2493C63.3218 13.0239 64.2269 10.3994 67.3589 10.3994ZM71.3476 20.8241C70.7736 21.8446 69.3643 22.7986 67.6697 22.7986C64.9224 22.7986 63.3903 21.2638 63.2493 17.8908H76.2333C76.5838 11.9335 73.6223 6.39253 67.4985 6.39253C62.0341 6.39253 58.3086 10.811 58.3086 16.6171C58.3086 22.6133 61.824 26.8062 67.4985 26.8062C70.9629 26.8062 73.6156 25.3915 75.1913 22.1581L71.3476 20.8241Z" fill="#1B6FC1"/>
<path d="M71.3924 32.6601C74.9427 32.6601 76.9931 35.7599 77.0999 39.0658H65.4728C65.8232 35.7948 67.8045 32.6601 71.3924 32.6601ZM76.6138 44.6007C75.7403 46.6404 74.0813 47.9738 71.3924 47.9738C67.1781 47.9738 65.5084 44.1113 65.4728 40.9094H79.2926C79.4638 35.8592 77.1657 30.8131 71.3924 30.8131C65.6829 30.8131 63.2773 35.5846 63.2773 40.32C63.2773 45.4319 65.6829 49.8154 71.3924 49.8154C75.1495 49.8154 77.4134 48.1819 78.6145 45.2956L76.6138 44.6007Z" fill="#1B6FC1"/>
<path d="M191.631 29.8078C188.847 30.694 185.994 31.5964 183.328 32.8223C182.283 33.2648 181.231 33.9207 180.246 34.5545C179.835 33.1157 180.252 31.5131 181.333 30.6745C182.169 31.2895 183.192 31.6091 184.328 31.4413C186.561 31.1855 187.819 29.1471 188.68 27.0517C190.281 26.2917 191.9 25.5438 193.36 24.5696C193.072 26.2413 192.466 27.9729 191.904 29.552C191.835 29.7158 191.893 29.7332 191.631 29.8078ZM181.012 35.9228C183.929 34.7076 187.803 33.344 190.815 32.404C189.586 34.4968 184.467 38.742 181.012 35.9228ZM188.057 27.3035C187.532 28.4804 186.745 29.9058 185.63 30.5564C184.536 31.2506 182.686 31.1955 181.646 30.3811C183.33 29.0357 186.011 28.1105 188.057 27.3035ZM189.784 17.855C189.705 20.0531 189.436 22.025 188.838 24.015C188.128 24.4588 182.399 27.3236 181.016 29.5097C179.633 25.3309 187.564 20.6661 189.784 17.855ZM190.339 17.2038C190.954 16.4693 192.22 14.2396 192.388 13.736C193.358 11.4332 193.402 8.86107 193.358 7.81639C193.677 8.85435 193.868 9.95141 193.996 11.0478C194.439 14.4356 194.192 18.1088 193.773 21.5759C192.399 22.4688 190.97 23.1073 189.521 23.7283C189.987 21.6229 190.37 19.5644 190.339 17.2038ZM186.778 40.6548C185.669 41.7471 184.248 43.006 183.071 44.1937C180.773 43.435 178.086 43.1577 175.637 43.6351C175.625 42.7871 175.674 42.0781 175.946 41.2624C179.306 40.5896 183.208 40.7763 186.778 40.6548ZM185.221 47.3593C183.985 48.4617 181.587 49.2015 179.264 48.5845L181.911 46.4435C183.031 46.8732 184.081 47.0256 185.221 47.3593ZM178.804 48.4315C178.804 48.4315 176.705 47.3089 175.745 44.5878C177.627 44.7422 179.699 45.6573 181.395 46.2407C181.395 46.2407 179.606 47.746 178.804 48.4315ZM173.437 49.9072C173.941 48.3731 173.885 46.6825 173.3 45.1155C173.387 45.0537 174.637 44.5656 175.255 44.6106C176.354 47.5573 178.327 48.5322 178.491 48.7007C177.105 49.7628 175.203 50.3496 173.437 49.9072ZM172.791 49.64C170.288 47.4391 172.491 45.529 172.828 45.378C173.22 46.6274 173.254 48.4221 172.791 49.64ZM166.451 49.8132C169.368 47.6372 167.822 45.621 166.757 44.624C166.992 44.1661 167.254 43.6015 167.816 43.0959C168.443 43.6619 168.692 44.5233 168.774 45.4854C168.916 45.4908 168.898 45.4827 169.172 45.4941C169.231 44.4629 168.785 43.4638 168.186 42.6864C168.557 42.344 169.593 41.443 169.91 41.3033C170.438 41.7625 170.864 42.2191 171.368 42.8274C171.368 42.8274 170.129 44.0621 170.179 45.5304L170.555 45.5458C170.735 44.7751 170.669 44.2675 171.709 43.2611C172.132 43.7572 172.453 44.2675 172.637 44.8691C172.02 45.38 169.52 47.5835 172.594 50.0643C169.314 55.0165 166.481 50.0643 166.451 49.8132ZM166.554 45.1155C168.749 47.2075 166.976 48.8853 166.267 49.3634C166.267 49.3634 165.691 47.3673 166.554 45.1155ZM165.587 49.5963C163.796 49.8682 161.886 49.0068 160.664 48.0219C163.256 46.571 163.996 44.3837 164.193 44.1587C164.9 44.2494 165.511 44.4823 166.085 44.8187C165.562 45.9735 165.074 47.9608 165.587 49.5963ZM157.944 45.3538C159.725 44.8738 161.684 44.1661 163.659 44.1326C163.666 44.4058 162.046 46.937 160.358 47.7097C159.553 46.9363 157.944 45.3538 157.944 45.3538ZM154.046 46.2065C154.316 46.1769 156.393 45.7687 157.397 45.5149C158.16 46.2703 159.073 47.1202 159.885 47.8621C159.885 47.8621 156.368 48.4738 154.046 46.2065ZM153.007 39.4093C155.412 39.6027 162.217 40.1344 163.71 40.7823C163.936 41.4806 163.933 42.4547 163.865 43.1658C161.509 42.5843 158.705 42.5293 156.389 43.1832C156.389 43.1832 154.055 40.6004 153.007 39.4093ZM164.327 40.9488C165.422 41.218 166.541 42.0143 167.457 42.6938C166.9 43.2926 166.679 43.6727 166.371 44.2937C165.791 43.8606 165.345 43.6505 164.316 43.2973C164.406 42.544 164.411 41.6927 164.327 40.9488ZM160.304 34.0765C161.048 32.2637 160.66 30.8914 159.763 29.1834C162.44 25.6431 159.049 20.7964 156.605 18.3445C155.334 16.999 152.327 13.6958 152.091 13.3097C151.528 7.61161 154.28 2.57216 154.484 2.1606C153.12 5.11069 152.431 9.27062 160.201 18.9158C161.579 20.6265 163.467 22.5574 163.375 25.0725C163.336 27.3364 161.519 29.1538 161.768 31.1962C161.962 32.5524 162.718 33.6938 164.163 33.9677C165.705 34.2611 166.962 33.818 167.94 32.7417C171.088 28.6456 166.239 25.6499 166.221 21.5624C166.214 20.0082 167.114 19.0669 168.471 18.5707C169.419 18.2975 170.67 18.0141 171.425 18.7735C171.153 18.8044 170.612 18.9037 169.956 19.2293L169.964 19.2488C169.879 19.1246 169.736 19.0434 169.575 19.0434C169.315 19.0434 169.105 19.2535 169.105 19.512C169.105 19.5845 169.122 19.6517 169.152 19.7127C169.22 19.8887 169.386 20.027 169.658 19.9739C169.669 19.9719 169.68 19.9692 169.691 19.9665C169.783 19.9437 169.884 19.9014 170 19.8316C170.617 19.457 171.357 19.3213 171.698 19.2757L171.699 19.2777C174.635 19.0675 173.833 20.6413 173.833 20.6413C173.833 20.6413 171.563 19.3609 169.353 21.4617C166.063 25.1362 181.147 32.4 169.831 40.6756C169.358 40.2459 167.901 39.2724 166.943 38.8729C166.857 38.985 166.808 39.077 166.741 39.1777C167.71 39.6336 168.695 40.2418 169.466 40.9166C168.776 41.3805 168.412 41.735 167.869 42.256C166.855 41.2308 165.684 40.3909 164.214 39.7672C163.5 37.5402 162.027 35.6287 160.304 34.0765ZM159.931 33.724C157.284 31.7326 152.94 29.7151 148.71 28.1051C148.329 27.1061 147.624 23.4497 147.579 22.8683C148.784 23.8532 150.588 24.9952 152.113 25.7559C154.088 32.1476 158.272 30.404 159.132 29.8279C160.207 30.8739 160.402 32.2657 159.931 33.724ZM149.557 30.8625C151.713 31.644 158.517 34.7774 159.049 35.0896C158.344 35.8174 153.871 37.426 149.557 30.8625ZM148.434 7.01206C148.344 8.19975 148.479 11.1639 151.103 15.7663C150.981 17.943 151.159 20.1921 151.459 22.2775C150.016 21.5678 148.76 20.6661 147.385 19.8625C147.264 18.0235 147.501 9.0175 148.434 7.01206ZM158.819 29.4996C158.514 29.7823 154.482 31.6131 152.688 26.001C154.688 26.9121 157.171 28.0783 158.819 29.4996ZM151.644 16.4491C152.819 18.3686 161.289 24.7918 159.516 28.6275C157.414 25.7123 152.313 22.9361 152.113 22.6796C151.722 20.7574 151.608 18.5459 151.644 16.4491ZM175.328 41.3872C175.238 42.1587 175.149 42.4722 175.187 43.7378C174.441 43.9264 173.663 44.1621 173.06 44.5804C172.809 43.9607 172.484 43.4054 172.088 42.9039C172.088 42.9039 173.671 41.7733 175.328 41.3872ZM197.285 34.7539C198.729 36.7768 192.241 38.5137 189.409 38.5996C189.409 38.5996 195.294 32.8599 197.285 34.7539ZM193.176 44.5878C193.395 45.4733 190.743 47.4962 187.261 45.8016C190.635 43.3517 193 43.4289 193.176 44.5878ZM146.287 43.0462C146.619 40.7172 151.135 43.527 152.12 44.485C150.629 45.2175 146.324 45.1853 146.287 43.0462ZM142.775 32.9445C144.248 30.8625 148.939 35.426 150.494 37.1488C149.608 37.0205 141.511 35.2527 142.775 32.9445ZM192.538 29.4882C193.753 26.2192 193.61 25.8734 194.042 24.2057C197.912 22.1613 198.799 17.1326 198.752 16.5868C198.671 15.0882 198.746 15.9174 198.6 16.4276C198.173 17.9188 196.765 19.5979 195.493 20.5795C195.171 20.7769 194.782 21.1207 194.377 21.2939C194.468 19.9122 195.97 11.1935 192.557 4.47354L192.537 4.49166C193.629 7.86741 192.159 11.5601 190.14 14.065C190.098 13.5917 189.331 4.871 185.486 0.485477L185.164 0.0826436C185.744 1.0105 186.449 6.32657 183.387 11.4889C181.834 13.8441 179.708 15.8952 177.85 17.9879C176.098 20.1881 175.262 22.3211 176.084 26.1608C176.356 27.1961 176.79 28.7772 177.256 29.1397C177.531 29.2532 177.49 28.9007 177.397 28.6832C176.93 27.6815 176.223 23.7035 180.702 18.5284C188.228 9.83929 186.138 2.22169 186.138 2.22169C187.345 3.5027 189.321 10.7242 189.534 14.674C187.192 17.3777 178.748 23.4235 180.037 28.2146C180.185 28.8463 180.446 29.4667 180.74 29.9843C179.625 31.7709 179.249 33.109 179.837 34.8533C178.152 36.2148 176.318 38.0726 175.547 40.2042C174.192 40.7098 172.898 41.3691 171.713 42.4373C171.248 41.9183 170.87 41.49 170.319 41.071C170.672 40.8649 174.043 39.0468 175.37 37.6489C176.658 36.3115 177.432 34.4598 176.946 32.4215C176.092 28.8275 168.063 24.1063 169.761 22.0297C170.649 20.9233 172.644 20.4029 173.8 21.2046V21.2026C173.8 21.2026 173.809 21.2106 173.822 21.218C173.83 21.222 173.833 21.2254 173.844 21.2328L173.841 21.2341C173.906 21.2804 174.029 21.3771 174.085 21.4362C174.618 20.6554 175.164 18.652 172.038 18.6755C171.788 18.0383 171.022 17.7993 170.352 17.714C168.351 17.5784 166.425 18.4727 165.691 20.2096C164.758 22.3956 167.514 27.2202 167.331 30.3368C167.448 32.9928 162.13 34.7599 162.209 30.6181C162.245 28.7591 166.585 23.7169 162.567 17.8913C161.067 15.8885 159.3 14.0274 157.808 12.1213C152.362 5.16641 155.607 0.00409017 155.544 6.18257e-05C150.229 6.86905 151.459 12.5436 151.326 12.2791C150.976 11.6366 147.985 8.06279 149.439 3.4349C149.439 3.4349 146.159 7.55924 146.743 19.4751C146.175 19.1307 142.744 16.0288 142.878 13.7031C142.878 13.7031 142.085 18.8198 146.91 22.4916C147.282 24.3695 147.397 25.9869 148.01 27.8372C146.146 27.1625 143.261 24.9623 142.315 22.9059C142.183 22.5279 142.873 27.5855 148.672 30.4839C153.334 38.4821 158.548 36.3498 159.614 35.2991C161.122 35.8778 163.329 39.0528 163.44 39.4966C160.38 38.5271 155.399 37.373 151.533 37.2441C149.349 35.0446 144.466 30.4228 142.383 32.6518C140.154 35.5193 147.932 38.8474 151.982 39.2744C153.071 40.4272 154.672 42.017 155.741 43.343C154.505 43.6505 154.31 43.7398 152.601 44.3447C146.798 39.5866 145.92 42.8227 145.92 42.8227C145.044 46.71 152.53 46.5026 153.402 46.2911C155.551 48.5187 158.72 48.7161 160.248 48.228C162.512 50.3228 164.921 50.255 165.658 50.0717C168.125 55.7496 172.375 52.968 173.358 50.3664C175.498 50.9277 177.307 50.0643 178.903 48.9182C179.98 49.2942 183.012 49.8353 185.848 47.4989C193.078 48.8853 193.838 45.0423 193.477 44.3024C192.425 42.1533 188.018 44.5985 186.782 45.6385C185.515 45.1088 184.949 44.7496 183.724 44.3917C184.99 43.0086 186.461 41.7585 187.782 40.6111C202.413 39.5584 200.029 27.7238 188.455 38.6352C185.092 38.6063 179.893 39.0609 176.315 40.0156C176.284 39.7229 178.551 36.8607 180.462 36.0933C184.028 39.3093 189.352 36.1054 191.692 32.0804C195.211 30.7511 197.59 28.1199 198.463 25.4035L198.636 24.9308C197.897 26.2742 195.307 28.7772 192.538 29.4882Z" fill="#1B6FC1"/>
</svg>
